<svg id="Layer_1" data-name="Layer 1" xmlns="http://www.w3.org/2000/svg" viewBox="0 0 292 292"><defs><style>.cls-1{fill:none;stroke:#000;stroke-miterlimit:10;stroke-width:6px;}</style></defs><title>plusiconwithborder</title><g id="F9ImR7"><path d="M646.18,198.67c-5.81,0-11.62.06-17.43,0-1.62,0-2.14.38-2.13,2.08.08,11.18-.11,22.37.1,33.55.1,5.43-3.05,9-8.87,8.77-4.11-.19-8.25,0-12.37,0q-8.13-.07-8.15-8.25c0-11.31,0-22.62,0-33.92,0-1.76-.53-2.18-2.22-2.17-11.18.07-22.37,0-33.55,0-5.92,0-8.57-2.65-8.59-8.57,0-4.19,0-8.37,0-12.56,0-5.44,2.79-8.18,8.21-8.19,11.31,0,22.62,0,33.92,0,1.68,0,2.23-.4,2.22-2.17-.08-11.25,0-22.49,0-33.74,0-5.69,2.69-8.41,8.33-8.44,4.31,0,8.62,0,12.93,0,5.3.06,8,2.83,8.05,8.16,0,11.37,0,22.74,0,34.11,0,1.69.5,2.09,2.12,2.08,11.25-.07,22.49,0,33.74,0,5.79,0,8.47,2.69,8.5,8.47,0,4.25,0,8.5,0,12.74-.05,5.33-2.81,8.07-8.11,8.1C657.3,198.69,651.74,198.67,646.18,198.67Z" transform="translate(-466 -38.02)"/></g><circle class="cls-1" cx="146" cy="146" r="143"/></svg>