<svg id="Layer_1" data-name="Layer 1" xmlns="http://www.w3.org/2000/svg" viewBox="0 0 314.67 314.78"><defs><style>.cls-1{fill:#fff;}</style></defs><title>plusicon</title><g id="F9ImR7"><path class="cls-1" d="M703.15,223.1c14.83,0,29.66,0,44.48,0,14.13-.06,21.49-7.38,21.63-21.59.11-11.33.06-22.66,0-34-.07-15.44-7.22-22.59-22.65-22.6-30,0-60-.09-90,.08-4.32,0-5.69-1-5.66-5.54.2-30.32.14-60.65.09-91,0-14.19-7.33-21.6-21.47-21.75-11.49-.12-23-.08-34.49,0-15.05.09-22.21,7.34-22.22,22.52,0,30-.11,60,.1,90,0,4.72-1.44,5.81-5.93,5.79-30.16-.18-60.31-.13-90.47-.08-14.45,0-21.77,7.35-21.89,21.85-.09,11.16-.05,22.33,0,33.49.05,15.78,7.12,22.83,22.91,22.84,29.82,0,59.65.09,89.47-.09,4.5,0,6,1.09,5.92,5.79-.21,30.15-.14,60.31-.09,90.47q0,21.78,21.72,22c11,.1,22-.39,33,.12,15.51.72,23.93-8.9,23.65-23.39-.57-29.81-.07-59.64-.27-89.47,0-4.51,1.36-5.6,5.67-5.54C672.16,223.25,687.66,223.1,703.15,223.1Z" transform="translate(-454.67 -26.65)"/><path d="M703.15,223.1c-15.49,0-31,.15-46.48-.09-4.32-.07-5.7,1-5.67,5.54.2,29.82-.29,59.65.27,89.47.28,14.49-8.14,24.11-23.65,23.39-11-.51-22,0-33-.12q-21.67-.2-21.72-22c0-30.16-.12-60.31.09-90.47,0-4.7-1.42-5.82-5.92-5.79-29.82.18-59.65.11-89.47.09-15.79,0-22.85-7.06-22.91-22.84,0-11.16-.08-22.33,0-33.49.12-14.5,7.44-21.82,21.89-21.85,30.16-.05,60.31-.1,90.47.08,4.49,0,6-1.07,5.93-5.79-.21-30-.13-60-.1-90,0-15.18,7.17-22.43,22.22-22.52,11.5-.07,23-.11,34.49,0,14.14.15,21.44,7.56,21.47,21.75.05,30.32.11,60.65-.09,91,0,4.5,1.34,5.57,5.66,5.54,30-.18,60-.11,90-.08,15.43,0,22.59,7.16,22.65,22.6,0,11.33.09,22.66,0,34-.14,14.21-7.5,21.53-21.63,21.59C732.81,223.15,718,223.1,703.15,223.1Z" transform="translate(-454.67 -26.65)"/></g></svg>